<?xml version="1.0" encoding="UTF-8"?>
<svg width="500" height="500" version="1.1" viewBox="0 0 500.00001 500.00001" xmlns="http://www.w3.org/2000/svg">
 <g transform="translate(0 -552.36)">
  <rect y="552.36" width="500" height="500" fill-opacity="0"/>
  <path d="m167.83 593.14c-16.067 0-29.002 12.935-29.002 29.002v360.45c-1e-5 16.067 12.935 29.002 29.002 29.002h164.34c16.067 0 29.002-12.935 29.002-29.002v-360.45c0-16.067-12.935-29.002-29.002-29.002zm64.407 27.032h35.529c0.97477 0 1.7589 0.78415 1.7589 1.7589v2.0961c0 0.97477-0.78412 1.7589-1.7589 1.7589h-35.529c-0.97477 0-1.7589-0.78413-1.7589-1.7589v-2.0961c0-0.97476 0.78413-1.7589 1.7589-1.7589zm-73.71 33.288h182.95v297.81h-182.95zm91.474 310.38c9.8915-4e-5 17.91 8.0186 17.91 17.91 4e-5 9.8914-8.0186 17.91-17.91 17.91s-17.91-8.0187-17.91-17.91c-4e-5 -9.8915 8.0186-17.91 17.91-17.91z" color="#000000" fill="#555"/>
 </g>
</svg>
